<svg xmlns="http://www.w3.org/2000/svg" width="36" height="36" viewBox="0 0 36 36"><g transform="translate(0 -1016.362)"><g fill="#fff" transform="translate(1 -2)"><circle cx="17" cy="1036.362" r="18" fill="#239fdb" fill-rule="evenodd"/><path fill="#0b5ecd" style="line-height:normal;text-indent:0;text-align:start;text-decoration-line:none;text-decoration-style:solid;text-decoration-color:#000;text-transform:none;block-progression:tb;isolation:auto;mix-blend-mode:normal" d="M 19.960938 35.871094 A 17.999992 17.999992 0 0 0 21.058594 35.738281 A 17.999992 17.999992 0 0 0 22.814453 35.34375 A 17.999992 17.999992 0 0 0 24.521484 34.777344 A 17.999992 17.999992 0 0 0 26.164062 34.041016 A 17.999992 17.999992 0 0 0 27.724609 33.146484 A 17.999992 17.999992 0 0 0 29.189453 32.099609 A 17.999992 17.999992 0 0 0 30.541016 30.912109 A 17.999992 17.999992 0 0 0 31.767578 29.595703 A 17.999992 17.999992 0 0 0 32.855469 28.164062 A 17.999992 17.999992 0 0 0 33.796875 26.628906 A 17.999992 17.999992 0 0 0 34.578125 25.009766 A 17.999992 17.999992 0 0 0 35.195312 23.320312 A 17.999992 17.999992 0 0 0 35.640625 21.576172 A 17.999992 17.999992 0 0 0 35.722656 21.035156 L 27.195312 12.507812 A 0.50005006 0.50005006 0 0 0 26.873047 12.044922 A 0.50005006 0.50005006 0 0 0 26.824219 12.029297 A 0.50005006 0.50005006 0 0 0 26.726562 12.011719 A 0.50005 0.50005 0 0 0 26.699219 12.011719 L 26.691406 12.011719 L 17.599609 11.996094 L 17.599609 11.998047 L 12.636719 12.009766 L 8.5 12.009766 L 8.5 12.011719 L 8.5 12.019531 A 0.50005006 0.50005006 0 0 0 8.2597656 12.080078 A 0.50005 0.50005 0 0 0 8.2167969 12.107422 A 0.50005006 0.50005006 0 0 0 8.1777344 12.136719 A 0.50005 0.50005 0 0 0 8.1425781 12.171875 A 0.50005 0.50005 0 0 0 8.0800781 12.25 A 0.50005006 0.50005006 0 0 0 8.0546875 12.292969 A 0.50005 0.50005 0 0 0 8.0078125 12.435547 A 0.50005006 0.50005006 0 0 0 8.0019531 12.484375 A 0.50005 0.50005 0 0 0 8 12.521484 L 8 23.910156 A 0.50005 0.50005 0 0 0 8.5 24.410156 L 19.960938 35.871094 z M 9 13.417969 L 11.388672 14.910156 L 11.394531 14.916016 L 9 13.419922 L 9 13.417969 z " color="#000" font-family="sans-serif" font-weight="400" transform="translate(-1 1018.362)" white-space="normal"/><path style="line-height:normal;text-indent:0;text-align:start;text-decoration-line:none;text-decoration-style:solid;text-decoration-color:#000;text-transform:none;block-progression:tb;isolation:auto;mix-blend-mode:normal" d="m 16.599609,1030.3622 -4.96289,0.012 -4.136719,0 0,0.01 a 0.50005006,0.50005006 0 0 0 -0.2402344,0.061 0.50005,0.50005 0 0 0 -0.042969,0.027 0.50005006,0.50005006 0 0 0 -0.039063,0.029 0.50005,0.50005 0 0 0 -0.035156,0.035 0.50005,0.50005 0 0 0 -0.0625,0.078 0.50005006,0.50005006 0 0 0 -0.025391,0.043 0.50005,0.50005 0 0 0 -0.046875,0.1425 0.50005006,0.50005006 0 0 0 -0.00586,0.049 A 0.50005,0.50005 0 0 0 7,1030.8837 l 0,11.3887 a 0.50005,0.50005 0 0 0 0.5,0.5 l 13.732422,0 c 0.747057,0.6239 1.552089,1.1693 2.216797,1.6972 a 0.50005,0.50005 0 0 0 0.628906,-0.012 c 0.878965,-0.7286 1.913754,-1.5206 2.763672,-2.4062 0.849917,-0.8855 1.542992,-1.8856 1.611328,-3.0567 a 0.50005,0.50005 0 0 0 0.002,-0.027 c 0,-1.3551 -0.974206,-2.4947 -2.263672,-2.7481 l 0,-5.2715 a 0.50005006,0.50005006 0 0 0 -0.318359,-0.541 0.50005006,0.50005006 0 0 0 -0.04883,-0.016 0.50005006,0.50005006 0 0 0 -0.09766,-0.018 0.50005,0.50005 0 0 0 -0.02734,0 l -0.0078,0 -9.091855,-0.012 z m -7.3554684,1.0215 14.6972654,0 -7.341797,4.5937 -7.3554684,-4.5937 z m 15.9472654,0.3965 0,4.4375 c -0.55304,0.1101 -1.033688,0.4025 -1.43164,0.7812 -0.505156,-0.4828 -1.139314,-0.834 -1.892578,-0.834 l 0,0 c -0.580237,0 -1.122368,0.1776 -1.572266,0.4805 -0.149678,0.1006 -0.288426,0.2154 -0.416016,0.3418 -0.51215,0.5075 -0.831498,1.2087 -0.832031,1.9805 -0.0013,0.1432 0.01104,0.281 0.02539,0.4179 0.09783,0.9337 0.548188,1.7148 1.130859,2.3848 l -12.203125,0 0,-9.9883 8.335938,5.2071 a 0.50005006,0.50005006 0 0 0 0.529296,0 l 8.326172,-5.211 z m -3.324218,5.3828 0,0.01 c 0.620649,0 1.155473,0.3025 1.484374,0.7695 a 0.50005,0.50005 0 0 0 0.816407,0 c 0.329378,-0.4636 0.869906,-0.7715 1.484375,-0.7715 1.004252,0 1.789418,0.7959 1.796875,1.791 -0.05248,0.7953 -0.561241,1.6052 -1.330078,2.4063 -0.686385,0.7152 -1.561339,1.3967 -2.376953,2.0644 -0.663506,-0.5054 -1.37083,-1.0011 -1.986329,-1.5253 a 0.50005,0.50005 0 0 0 -0.01172,-0.01 c -0.0029,-0 -0.0049,-0.01 -0.0078,-0.01 -0.211546,-0.1818 -0.402811,-0.3659 -0.583984,-0.5528 -0.05634,-0.058 -0.111284,-0.1167 -0.164063,-0.1758 -0.134571,-0.1498 -0.251932,-0.3042 -0.361328,-0.4609 -0.06127,-0.088 -0.127438,-0.175 -0.179687,-0.2656 -0.02821,-0.049 -0.0546,-0.099 -0.08008,-0.1485 -0.08878,-0.1738 -0.162678,-0.3525 -0.214844,-0.539 -0.01193,-0.042 -0.01939,-0.086 -0.0293,-0.1289 -0.04653,-0.2041 -0.07829,-0.4131 -0.07617,-0.6367 a 0.50005,0.50005 0 0 0 0,-0 0.50005,0.50005 0 0 0 0,-0.01 c 0,-0 -3e-6,-0 0,-0 0,-0.1234 0.01345,-0.2431 0.03711,-0.3594 2.54e-4,-0 -2.55e-4,-0 0,-0 0.02403,-0.1169 0.05991,-0.2286 0.105469,-0.336 2.25e-4,-5e-4 -2.25e-4,-0 0,-0 0.04569,-0.1073 0.103105,-0.2092 0.167969,-0.3046 2.83e-4,-5e-4 -2.84e-4,-0 0,-0 0.06499,-0.095 0.138891,-0.1845 0.220703,-0.2657 0.164485,-0.1632 0.36018,-0.2954 0.578125,-0.3867 0.217945,-0.091 0.458722,-0.1406 0.710938,-0.1406 z" color="#000" font-family="sans-serif" font-weight="400" overflow="visible" white-space="normal"/></g></g></svg>